<?xml version="1.0" encoding="UTF-8" standalone="no"?>
<!-- Created with Inkscape (http://www.inkscape.org/) -->

<svg
   xmlns:dc="http://purl.org/dc/elements/1.1/"
   xmlns:cc="http://creativecommons.org/ns#"
   xmlns:rdf="http://www.w3.org/1999/02/22-rdf-syntax-ns#"
   xmlns:svg="http://www.w3.org/2000/svg"
   xmlns="http://www.w3.org/2000/svg"
   xmlns:sodipodi="http://sodipodi.sourceforge.net/DTD/sodipodi-0.dtd"
   xmlns:inkscape="http://www.inkscape.org/namespaces/inkscape"
   width="100"
   height="100"
   viewBox="0 0 26.458333 26.458334"
   version="1.1"
   id="svg8"
   inkscape:version="0.92.4 (5da689c313, 2019-01-14)"
   sodipodi:docname="csv.svg">
  <defs
     id="defs2" />
  <sodipodi:namedview
     id="base"
     pagecolor="#ffffff"
     bordercolor="#666666"
     borderopacity="1.0"
     inkscape:pageopacity="0.0"
     inkscape:pageshadow="2"
     inkscape:zoom="2"
     inkscape:cx="-35.677855"
     inkscape:cy="86.743201"
     inkscape:document-units="mm"
     inkscape:current-layer="g819"
     showgrid="true"
     units="px"
     showguides="true"
     inkscape:guide-bbox="true"
     inkscape:snap-grids="false"
     inkscape:snap-to-guides="false"
     inkscape:window-width="1366"
     inkscape:window-height="721"
     inkscape:window-x="-4"
     inkscape:window-y="-4"
     inkscape:window-maximized="1">
    <inkscape:grid
       type="xygrid"
       id="grid831" />
    <sodipodi:guide
       position="0,13.229167"
       orientation="1,0"
       id="guide833"
       inkscape:locked="false" />
    <sodipodi:guide
       position="13.229166,26.458334"
       orientation="0,1"
       id="guide835"
       inkscape:locked="false" />
    <sodipodi:guide
       position="26.458333,13.229167"
       orientation="1,0"
       id="guide837"
       inkscape:locked="false" />
    <sodipodi:guide
       position="13.229166,0"
       orientation="0,1"
       id="guide839"
       inkscape:locked="false" />
    <sodipodi:guide
       position="7.9374999,18.520834"
       orientation="0.70710678,0.70710678"
       id="guide841"
       inkscape:locked="false" />
    <sodipodi:guide
       position="0,0"
       orientation="-0.70710678,0.70710678"
       id="guide843"
       inkscape:locked="false" />
    <sodipodi:guide
       position="13.229166,13.229167"
       orientation="0,1"
       id="guide845"
       inkscape:locked="false" />
    <sodipodi:guide
       position="13.229166,13.229167"
       orientation="1,0"
       id="guide847"
       inkscape:locked="false" />
    <sodipodi:guide
       position="13.857552,17.032552"
       orientation="0,1"
       id="guide1105"
       inkscape:locked="false" />
    <sodipodi:guide
       position="13.196094,6.3830731"
       orientation="0,1"
       id="guide1107"
       inkscape:locked="false" />
  </sodipodi:namedview>
  <metadata
     id="metadata5">
    <rdf:RDF>
      <cc:Work
         rdf:about="">
        <dc:format>image/svg+xml</dc:format>
        <dc:type
           rdf:resource="http://purl.org/dc/dcmitype/StillImage" />
        <dc:title></dc:title>
      </cc:Work>
    </rdf:RDF>
  </metadata>
  <g
     inkscape:label="Layer 1"
     inkscape:groupmode="layer"
     id="layer1"
     transform="translate(0,-270.54165)">
    <g
       id="g819"
       transform="matrix(0.26458333,0,0,0.26458333,-32.914636,116.44832)"
       style="fill:#545454;fill-opacity:1">
	<g
   id="g941" />
<g
   inkscape:groupmode="layer"
   id="layer2"
   inkscape:label="Layer 2" />

<path
   style="fill:#545454;fill-opacity:1;stroke-width:0.19472253"
   d="m 183.54436,343.52499 c -3.46606,0 -4.8086,2.57052 -4.8086,4.57617 V 366.191 h 6.73633 v -14.42968 c 0,-0.77887 0.64293,-1.42188 1.40235,-1.42188 h 34.4082 c 0.75942,0 1.12891,0.13664 1.12891,0.75977 v 24.02929 h 24.49609 c 0.95414,0 1.34375,0.48663 1.34375,1.22657 v 58.66992 c 0,1.22677 -0.48667,1.42187 -1.24609,1.42187 h -60.13086 c -0.75942,0 -1.40235,-0.66245 -1.40235,-1.42187 v -5.35547 h -6.67773 v 8.45117 c -0.078,2.99873 1.49819,5.12109 4.76953,5.12109 h 66.79102 c 3.48553,0 4.67187,-2.5304 4.67187,-4.82812 v -62.75977 -6.26953 l -1.73242,-1.88867 -15.53906,-17.19531 -6.11329,-6.77539 z m 45.75976,7.5957 1.90821,2.14063 12.94922,14.23437 0.7207,0.85547 h -13.2207 c -0.99309,0 -1.63554,-0.17477 -1.88868,-0.48633 -0.27262,-0.33102 -0.42981,-0.85563 -0.46875,-1.55664 z m -64.0039,20.44336 v 53.17969 h 52.16601 v -53.17969 z m 11.37109,8.5293 h 8.60742 l 6.09375,9.15234 6.09571,-9.15234 h 8.60547 l -10.32032,15.73437 11.64453,17.48633 h -8.91796 l -7.0879,-10.80859 -3.19335,4.86914 h 3.19335 v 5.93945 h -16.04492 l 11.64453,-17.48633 z m 47.18164,3.31054 v 6.64063 h 22.82031 v -6.64063 z m 0,13.29883 v 6.64063 h 22.82031 v -6.64063 z m 0,13.30078 v 6.63868 h 22.82031 v -6.63868 z"
   id="path817"
   inkscape:connector-curvature="0" />
<path
   style="opacity:1;fill:#10783f;fill-opacity:1;stroke:none;stroke-width:0.73407888;stroke-miterlimit:4;stroke-dasharray:none;stroke-opacity:1"
   d="m 165.26402,397.97352 v -26.58961 h 26.09089 26.09088 v 26.58961 26.58961 h -26.09088 -26.09089 z m 26.21816,12.16734 v -3.02673 l -1.48809,-0.0754 -1.48812,-0.0754 1.44303,-2.22894 1.44301,-2.22893 3.50586,5.33105 3.50587,5.33107 h 4.55739 c 2.50657,0 4.55739,-0.0583 4.55739,-0.12946 0,-0.0712 -2.52729,-3.89833 -5.61621,-8.50471 -3.08893,-4.60638 -5.67315,-8.52285 -5.74272,-8.70323 -0.0695,-0.1804 2.17135,-3.82051 4.97984,-8.08915 2.8085,-4.26865 5.10637,-7.81501 5.10637,-7.88078 0,-0.0658 -1.98696,-0.11961 -4.41548,-0.11961 h -4.41549 l -3.03145,4.5316 -3.03145,4.53161 -3.02698,-4.53161 -3.02697,-4.5316 h -4.43774 -4.43773 l 0.58496,0.94963 c 0.32171,0.52229 2.66802,4.10041 5.214,7.95138 l 4.62904,7.00174 -5.40336,8.0657 c -2.97186,4.43613 -5.60837,8.37907 -5.8589,8.76209 l -0.45551,0.6964 h 8.17472 8.17472 z"
   id="path949"
   inkscape:connector-curvature="0" />
<g
   id="g1097"
   transform="matrix(0.18174989,0,0,0.18174989,124.61706,582.51789)">
  <g
     id="g1043">
</g>
  <g
     id="g1045">
</g>
  <g
     id="g1047">
</g>
  <g
     id="g1049">
</g>
  <g
     id="g1051">
</g>
  <g
     id="g1053">
</g>
  <g
     id="g1055">
</g>
  <g
     id="g1057">
</g>
  <g
     id="g1059">
</g>
  <g
     id="g1061">
</g>
  <g
     id="g1063">
</g>
  <g
     id="g1065">
</g>
  <g
     id="g1067">
</g>
  <g
     id="g1069">
</g>
  <g
     id="g1071">
</g>
  <rect
     style="opacity:1;fill:#fffff6;fill-opacity:1;stroke:none;stroke-width:16.03339195;stroke-miterlimit:4;stroke-dasharray:none;stroke-opacity:1"
     id="rect1099"
     width="488.26382"
     height="221.30952"
     x="27.994604"
     y="195.51807"
     ry="30.627657" />
</g>
<g
   transform="matrix(0.18174989,0,0,0.18174989,124.61706,582.51789)"
   id="g1041"
   style="fill:#545454;fill-opacity:1;stroke:#545454;stroke-opacity:1">
	<path
   id="path1039"
   d="M 486.2,196.121 H 473.036 V 132.59 c 0,-0.399 -0.064,-0.795 -0.116,-1.2 -0.021,-2.52 -0.824,-5 -2.551,-6.96 L 364.656,3.677 C 364.625,3.643 364.592,3.633 364.571,3.602 363.942,2.895 363.207,2.31 362.43,1.806 362.199,1.649 361.968,1.52 361.726,1.387 361.054,1.022 360.34,0.715 359.605,0.494 359.406,0.442 359.228,0.36 359.029,0.306 358.229,0.118 357.4,0 356.562,0 H 96.757 C 84.893,0 75.256,9.649 75.256,21.502 V 196.115 H 62.093 c -16.972,0 -30.733,13.756 -30.733,30.73 v 159.81 c 0,16.966 13.761,30.736 30.733,30.736 H 75.256 V 526.79 c 0,11.854 9.637,21.501 21.501,21.501 h 354.777 c 11.853,0 21.502,-9.647 21.502,-21.501 V 417.392 H 486.2 c 16.966,0 30.729,-13.764 30.729,-30.731 v -159.81 c 10e-4,-16.979 -13.763,-30.73 -30.729,-30.73 z M 96.757,21.502 H 345.81 v 110.006 c 0,5.94 4.818,10.751 10.751,10.751 h 94.973 V 196.12 H 96.757 Z M 258.618,313.18 c -26.68,-9.291 -44.063,-24.053 -44.063,-47.389 0,-27.404 22.861,-48.368 60.733,-48.368 18.107,0 31.447,3.811 40.968,8.107 l -8.09,29.3 c -6.43,-3.107 -17.862,-7.632 -33.59,-7.632 -15.717,0 -23.339,7.149 -23.339,15.485 0,10.247 9.047,14.769 29.78,22.632 28.341,10.479 41.681,25.239 41.681,47.874 0,26.909 -20.721,49.786 -64.792,49.786 -18.338,0 -36.449,-4.776 -45.497,-9.77 l 7.38,-30.016 c 9.772,5.014 24.775,10.006 40.264,10.006 16.671,0 25.488,-6.908 25.488,-17.396 -0.005,-10.01 -7.632,-15.721 -26.923,-22.619 z M 69.474,302.692 c 0,-54.781 39.074,-85.269 87.654,-85.269 18.822,0 33.113,3.811 39.549,7.149 l -7.392,28.816 c -7.38,-3.084 -17.632,-5.939 -30.491,-5.939 -28.822,0 -51.206,17.375 -51.206,53.099 0,32.158 19.051,52.4 51.456,52.4 10.947,0 23.097,-2.378 30.241,-5.238 l 5.483,28.346 c -6.672,3.34 -21.674,6.919 -41.208,6.919 -55.5,10e-4 -84.086,-34.551 -84.086,-80.283 z m 382.06,218.27 H 96.757 V 417.392 H 451.534 Z M 427.518,380.583 h -42.399 l -51.45,-160.536 h 39.787 l 19.526,67.894 c 5.479,19.046 10.479,37.386 14.299,57.397 h 0.709 c 4.048,-19.298 9.045,-38.352 14.526,-56.693 l 20.487,-68.598 h 38.599 z"
   inkscape:connector-curvature="0"
   style="stroke:#545454;stroke-opacity:1" />

<path
   style="opacity:1;fill:#10783f;fill-opacity:1;stroke:none;stroke-width:0.36141732;stroke-miterlimit:4;stroke-dasharray:none;stroke-opacity:1"
   d="M 12.033089,75.992895 C 9.9774434,75.901986 9.2377272,75.690088 8.1667082,74.885341 7.3678133,74.285062 6.8440133,73.627551 6.3599312,72.617342 l -0.3893422,-0.8125 v -15.9375 -15.9375 L 6.3707704,39.085026 C 6.8145205,38.148233 7.8192562,37.003195 8.5979329,36.54686 9.608493,35.954632 10.144927,35.831542 12.052578,35.754158 l 1.83199,-0.07432 -0.01949,0.3125 -0.01949,0.3125 h 36.1875 36.1875 l 0.03994,-0.28125 c 0.03896,-0.274293 0.07805,-0.28125 1.580583,-0.28125 1.831994,0 2.773705,0.239716 3.902253,0.99333 0.891985,0.595646 1.425769,1.238443 1.953481,2.352437 l 0.398739,0.841733 v 15.9375 15.9375 l -0.451634,0.945681 c -0.732995,1.534828 -2.049947,2.640188 -3.65464,3.067453 -0.376662,0.100291 -1.278997,0.172015 -2.174976,0.172882 -1.448411,0.0014 -1.53125,-0.01204 -1.53125,-0.248516 0,-0.249425 -0.08333,-0.25 -36.263551,-0.25 H 13.755987 l 0.07843,0.3125 c 0.04314,0.171875 0.0633,0.302534 0.0448,0.290354 -0.0185,-0.01218 -0.849257,-0.05822 -1.846132,-0.102301 z m 18.25,-6.430355 c 1.856657,-0.0972 4.46084,-0.63534 5.110392,-1.056044 0.144,-0.09327 0.09332,-0.526813 -0.303252,-2.594316 -0.26188,-1.365287 -0.482721,-2.494128 -0.490758,-2.508537 -0.008,-0.01441 -0.349698,0.07783 -0.759247,0.204984 -2.660278,0.825919 -6.347181,0.858164 -8.551143,0.07479 -2.862955,-1.01761 -4.855236,-3.551182 -5.384754,-6.84776 -0.200957,-1.251072 -0.09056,-4.248195 0.194512,-5.280813 0.896058,-3.245781 3.129734,-5.425404 6.340852,-6.187409 2.086025,-0.495018 5.476635,-0.268401 7.50274,0.501459 0.351042,0.133385 0.645925,0.22979 0.655298,0.214234 0.06365,-0.105648 1.317516,-5.123953 1.28667,-5.149607 -0.128945,-0.10724 -1.585509,-0.585947 -2.250699,-0.739703 -2.235232,-0.516666 -5.842507,-0.633356 -8.051007,-0.260439 -3.465404,0.585152 -6.481503,2.099943 -8.615862,4.327188 -2.912984,3.039754 -4.209949,6.800218 -4.01933,11.653785 0.158305,4.030787 1.355603,7.053416 3.773088,9.52531 2.033291,2.079052 4.52342,3.349838 7.705396,3.932287 0.94112,0.17227 3.310784,0.338606 4.107104,0.288295 0.309375,-0.01955 1.096875,-0.06351 1.75,-0.0977 z m 19.9375,-0.147788 c 3.202776,-0.494435 5.841285,-1.998452 7.26692,-4.14233 0.815974,-1.227065 1.195322,-2.483189 1.26589,-4.19169 0.09875,-2.390855 -0.474083,-4.096179 -1.908318,-5.68106 -1.229546,-1.358692 -2.741907,-2.257247 -5.957726,-3.539722 -3.565426,-1.421899 -4.606886,-2.129642 -4.922124,-3.344914 -0.418822,-1.614599 0.60397,-2.903642 2.647412,-3.336582 1.668292,-0.353457 3.960802,-0.11708 6.098373,0.628793 0.692765,0.24173 1.31216,0.452579 1.376434,0.468552 0.144104,0.03581 1.58981,-5.062239 1.46959,-5.182276 -0.156995,-0.156757 -2.318415,-0.829615 -3.336451,-1.038651 -2.293001,-0.470828 -5.768004,-0.444439 -7.735424,0.05874 -2.14614,0.548891 -3.479664,1.282448 -4.892345,2.691228 -1.583126,1.578754 -2.306036,3.32252 -2.306036,5.5625 0,3.915046 2.371369,6.53536 7.746305,8.559506 3.705696,1.395528 4.862509,2.27749 5.081341,3.874053 0.192494,1.404389 -0.699896,2.660792 -2.275896,3.204255 -0.7578,0.261316 -1.082095,0.297867 -2.555445,0.288021 -2.014254,-0.01346 -3.772734,-0.370474 -5.768311,-1.171102 -0.697935,-0.280013 -1.288299,-0.489789 -1.311919,-0.46617 -0.05132,0.05133 -1.29477,5.050461 -1.29477,5.205485 0,0.05919 0.407812,0.277101 0.90625,0.484241 2.87758,1.195862 6.905006,1.609634 10.40625,1.069121 z m 28.223912,-1.82866 C 85.081024,47.898 87.658089,40.23208 87.658089,40.178703 c 0,-0.03592 -1.554801,-0.05036 -3.455114,-0.03209 l -3.455114,0.03323 -2.086805,7 c -2.525075,8.470135 -3.249606,11.130673 -4.195508,15.40625 -0.118475,0.53552 -0.274203,0.276393 -0.488287,-0.8125 -0.430657,-2.190442 -1.745033,-7.12744 -3.802096,-14.28125 l -2.102692,-7.3125 -3.593254,-0.03319 c -2.855269,-0.02637 -3.581801,-7e-4 -3.537493,0.125 0.03067,0.087 2.130959,6.640183 4.667312,14.562625 l 4.611551,14.404439 3.832809,0.0018 3.83281,0.0018 0.558293,-1.65625 z"
   id="path1113"
   inkscape:connector-curvature="0"
   transform="matrix(5.5020667,0,0,5.5020667,-1.1845101,-0.64866758)" />
</g>
</g>
  </g>
  <style
     id="style815"
     type="text/css">
	.st0{fill:#555555;}
</style>
</svg>
