<?xml version="1.0" encoding="UTF-8" standalone="no"?>
<!-- Created with Inkscape (http://www.inkscape.org/) -->

<svg
   xmlns:dc="http://purl.org/dc/elements/1.1/"
   xmlns:cc="http://creativecommons.org/ns#"
   xmlns:rdf="http://www.w3.org/1999/02/22-rdf-syntax-ns#"
   xmlns:svg="http://www.w3.org/2000/svg"
   xmlns="http://www.w3.org/2000/svg"
   xmlns:sodipodi="http://sodipodi.sourceforge.net/DTD/sodipodi-0.dtd"
   xmlns:inkscape="http://www.inkscape.org/namespaces/inkscape"
   width="100"
   height="100"
   viewBox="0 0 26.458333 26.458334"
   version="1.1"
   id="svg8"
   inkscape:version="0.92.4 (5da689c313, 2019-01-14)"
   sodipodi:docname="info.svg">
  <defs
     id="defs2" />
  <sodipodi:namedview
     id="base"
     pagecolor="#ffffff"
     bordercolor="#666666"
     borderopacity="1.0"
     inkscape:pageopacity="0.0"
     inkscape:pageshadow="2"
     inkscape:zoom="1.4"
     inkscape:cx="-120.59362"
     inkscape:cy="149.02898"
     inkscape:document-units="px"
     inkscape:current-layer="layer1"
     showgrid="true"
     units="px"
     showguides="true"
     inkscape:guide-bbox="true"
     inkscape:snap-grids="false"
     inkscape:snap-to-guides="false"
     inkscape:window-width="1366"
     inkscape:window-height="721"
     inkscape:window-x="-4"
     inkscape:window-y="-4"
     inkscape:window-maximized="1">
    <inkscape:grid
       type="xygrid"
       id="grid815" />
    <sodipodi:guide
       position="0,13.229167"
       orientation="1,0"
       id="guide817"
       inkscape:locked="false" />
    <sodipodi:guide
       position="13.229166,26.458334"
       orientation="0,1"
       id="guide819"
       inkscape:locked="false" />
    <sodipodi:guide
       position="13.229166,13.229167"
       orientation="1,0"
       id="guide821"
       inkscape:locked="false" />
    <sodipodi:guide
       position="26.458333,13.229167"
       orientation="1,0"
       id="guide823"
       inkscape:locked="false" />
    <sodipodi:guide
       position="13.229166,0"
       orientation="0,1"
       id="guide825"
       inkscape:locked="false" />
    <sodipodi:guide
       position="13.229166,13.229167"
       orientation="0,1"
       id="guide827"
       inkscape:locked="false" />
    <sodipodi:guide
       position="13.229166,13.229167"
       orientation="-0.70710678,0.70710678"
       id="guide829"
       inkscape:locked="false" />
    <sodipodi:guide
       position="13.229166,13.229167"
       orientation="0.70710678,0.70710678"
       id="guide831"
       inkscape:locked="false" />
  </sodipodi:namedview>
  <metadata
     id="metadata5">
    <rdf:RDF>
      <cc:Work
         rdf:about="">
        <dc:format>image/svg+xml</dc:format>
        <dc:type
           rdf:resource="http://purl.org/dc/dcmitype/StillImage" />
        <dc:title></dc:title>
      </cc:Work>
    </rdf:RDF>
  </metadata>
  <g
     inkscape:label="Layer 1"
     inkscape:groupmode="layer"
     id="layer1"
     transform="translate(0,-270.54165)">
    <path
       id="path925"
       d="m 13.257507,270.53487 c -7.2935975,0 -13.20715522,5.9157 -13.20715522,13.20716 0,7.29573 5.91355772,13.20715 13.20715522,13.20715 7.2936,0 13.207159,-5.91142 13.207159,-13.20715 0,-7.29146 -5.913559,-13.20716 -13.207159,-13.20716 z m 0,5.85801 c 1.235297,0 2.236698,1.0014 2.236698,2.2367 0,1.23529 -1.001401,2.23669 -2.236698,2.23669 -1.235293,0 -2.236694,-1.0014 -2.236694,-2.23669 0,-1.2353 1.001401,-2.2367 2.236694,-2.2367 z m 2.982263,13.52668 c 0,0.35292 -0.286137,0.63907 -0.639056,0.63907 h -4.686411 c -0.352919,0 -0.639056,-0.28615 -0.639056,-0.63907 v -1.2781 c 0,-0.35291 0.286137,-0.63905 0.639056,-0.63905 h 0.639056 v -3.40831 h -0.639056 c -0.352919,0 -0.639056,-0.28614 -0.639056,-0.63905 v -1.27811 c 0,-0.35293 0.286137,-0.63906 0.639056,-0.63906 h 3.408299 c 0.352919,0 0.639056,0.28613 0.639056,0.63906 v 5.32547 h 0.639056 c 0.352919,0 0.639056,0.28614 0.639056,0.63905 z"
       inkscape:connector-curvature="0"
       style="stroke-width:0.05325466;fill:#787878;fill-opacity:1" />
  </g>
</svg>
